<svg xmlns="http://www.w3.org/2000/svg" version="1.1" xmlns:xlink="http://www.w3.org/1999/xlink" xmlns:svgjs="http://svgjs.dev/svgjs" width="2000" height="1247" viewBox="0 0 2000 1247"><g transform="matrix(1,0,0,1,-1.2121212121212466,0.504858299595071)"><svg viewBox="0 0 396 247" data-background-color="#ffffff" preserveAspectRatio="xMidYMid meet" height="1247" width="2000" xmlns="http://www.w3.org/2000/svg" xmlns:xlink="http://www.w3.org/1999/xlink"><defs></defs><g id="tight-bounds" transform="matrix(1,0,0,1,0.2400000000000091,-0.09999999999999432)"><svg viewBox="0 0 395.52 247.2" height="247.2" width="395.52"><g><svg></svg></g><g><svg viewBox="0 0 395.52 247.2" height="247.2" width="395.52"><g transform="matrix(1,0,0,1,75.54432,79.04821015856803)"><svg viewBox="0 0 244.43135999999998 89.10357968286392" height="89.10357968286392" width="244.43135999999998"><g><svg viewBox="0 0 414.3880009962925 151.05858047999996" height="89.10357968286392" width="244.43135999999998"><g transform="matrix(1,0,0,1,0,4.149038596468543)"><svg viewBox="0 0 244.43135999999996 142.76050328706287" height="142.76050328706287" width="244.43135999999996"><g><svg viewBox="0 0 244.43135999999996 142.76050328706287" height="142.76050328706287" width="244.43135999999996"><g><svg viewBox="0 0 244.43135999999996 80.05074855678906" height="80.05074855678906" width="244.43135999999996"><g transform="matrix(1,0,0,1,0,0)"><svg width="244.43135999999996" viewBox="1 -37.5 117.08999633789062 38.349998474121094" height="80.05074855678906" data-palette-color="#000000"><path d="M29.1-31L29.1-31Q27.5-31 25.5-31.33 23.5-31.65 21.35-32.1L21.35-32.1 21.35 0 14.1 0 14.1-33.1 13.6-33.1Q11.35-33.1 9.85-32.58 8.35-32.05 7.45-31.08 6.55-30.1 6.2-28.65 5.85-27.2 5.85-25.4L5.85-25.4Q5.85-23.75 6.08-22.75 6.3-21.75 6.6-21.13 6.9-20.5 7.2-20.18 7.5-19.85 7.7-19.6L7.7-19.6Q4.55-19.6 2.78-21.08 1-22.55 1-26.3L1-26.3Q1-28.65 1.8-30.7 2.6-32.75 4.38-34.25 6.15-35.75 8.97-36.6 11.8-37.45 15.9-37.45L15.9-37.45Q17.9-37.45 19.53-37.27 21.15-37.1 22.58-36.88 24-36.65 25.4-36.48 26.8-36.3 28.35-36.3L28.35-36.3Q30.45-36.3 31.88-36.63 33.3-36.95 34.25-37.35L34.25-37.35Q34.4-36.35 34.4-35.6L34.4-35.6Q34.4-33.35 33.18-32.18 31.95-31 29.1-31ZM52.7-32.8L52.7-32.8Q51.65-32.1 50.87-30.2 50.1-28.3 49.57-25.85 49.05-23.4 48.8-20.7 48.55-18 48.55-15.6L48.55-15.6Q48.55-12 49.07-9.75 49.6-7.5 50.37-6.25 51.15-5 52.02-4.58 52.9-4.15 53.6-4.15L53.6-4.15Q55.1-4.15 56.22-5.53 57.35-6.9 58.12-9.2 58.9-11.5 59.27-14.48 59.65-17.45 59.65-20.65L59.65-20.65Q59.65-25.2 58.92-28.05 58.2-30.9 56.95-32.5 55.7-34.1 54.02-34.65 52.35-35.2 50.5-35.2L50.5-35.2Q48.1-35.2 45.95-34.48 43.8-33.75 42.2-32.35 40.6-30.95 39.67-28.9 38.75-26.85 38.75-24.25L38.75-24.25Q38.75-22.4 39.15-21.43 39.55-20.45 40.1-19.65L40.1-19.65Q37.25-19.65 35.62-20.93 34-22.2 34-25L34-25Q34-27.55 35.37-29.83 36.75-32.1 39.1-33.8 41.45-35.5 44.62-36.5 47.8-37.5 51.4-37.5L51.4-37.5Q55.75-37.5 58.7-36.05 61.65-34.6 63.4-32.1 65.15-29.6 65.9-26.3 66.65-23 66.65-19.35L66.65-19.35Q66.65-17.15 66.4-14.85 66.15-12.55 65.52-10.38 64.9-8.2 63.9-6.25 62.9-4.3 61.4-2.85 59.9-1.4 57.85-0.55 55.8 0.3 53.15 0.3L53.15 0.3Q50.75 0.3 48.57-0.5 46.4-1.3 44.72-3.15 43.05-5 42.07-8.03 41.1-11.05 41.1-15.55L41.1-15.55Q41.1-18.25 41.52-21.35 41.95-24.45 43-27.08 44.05-29.7 45.8-31.45 47.55-33.2 50.15-33.2L50.15-33.2Q50.7-33.2 51.35-33.13 52-33.05 52.7-32.8ZM78.65-31.8L85.84-32.8 85.84-21.25 86.25-21.25Q87.55-21.25 88.57-21.88 89.59-22.5 90.3-23.55 91-24.6 91.34-25.93 91.7-27.25 91.7-28.65L91.7-28.65Q91.7-29.6 91.45-30.75 91.2-31.9 90.42-32.88 89.65-33.85 88.17-34.52 86.7-35.2 84.25-35.2L84.25-35.2Q81.95-35.2 80.02-34.55 78.09-33.9 76.7-32.63 75.3-31.35 74.5-29.48 73.7-27.6 73.7-25.15L73.7-25.15Q73.7-23.75 73.92-22.78 74.15-21.8 74.45-21.18 74.75-20.55 75.02-20.2 75.3-19.85 75.4-19.65L75.4-19.65Q72.4-19.65 70.65-21.05 68.9-22.45 68.9-25.45L68.9-25.45Q68.9-27.9 70.05-30.08 71.2-32.25 73.3-33.9 75.4-35.55 78.32-36.52 81.25-37.5 84.8-37.5L84.8-37.5Q87.5-37.5 89.75-36.9 92-36.3 93.62-35.15 95.25-34 96.15-32.3 97.05-30.6 97.05-28.45L97.05-28.45Q97.05-26.25 96.07-24.25 95.09-22.25 93.2-20.95L93.2-20.95Q95.65-20.35 96.87-18.45 98.09-16.55 98.09-12.9L98.09-12.9Q98.09-12.2 98.05-11.18 98-10.15 97.97-9.1 97.95-8.05 97.9-7.1 97.84-6.15 97.84-5.55L97.84-5.55Q97.84-3.1 98.62-1.8 99.4-0.5 100.7 0L100.7 0Q99.2 0.45 98 0.65 96.8 0.85 95.84 0.85L95.84 0.85Q93.4 0.85 92.25-0.48 91.09-1.8 91.09-4.7L91.09-4.7Q91.09-5.4 91.15-6.45 91.2-7.5 91.27-8.65 91.34-9.8 91.4-10.93 91.45-12.05 91.45-12.95L91.45-12.95Q91.45-15.7 90.62-17.38 89.8-19.05 87.5-19.05L87.5-19.05Q86.65-19.05 85.84-18.85L85.84-18.85 85.84 0 78.65 0 78.65-31.8ZM118.09-37.4L118.09 0 110.89 0 110.89-33.9Q108.49-32.75 107.19-30.63 105.89-28.5 105.89-25.5L105.89-25.5Q105.89-23.95 106.12-22.95 106.34-21.95 106.62-21.33 106.89-20.7 107.19-20.33 107.49-19.95 107.64-19.65L107.64-19.65Q104.64-19.65 102.89-21.03 101.14-22.4 101.14-25.7L101.14-25.7Q101.14-28.1 102.39-30.23 103.64-32.35 105.72-33.98 107.79-35.6 110.47-36.55 113.14-37.5 115.99-37.5L115.99-37.5Q116.54-37.5 117.07-37.48 117.59-37.45 118.09-37.4L118.09-37.4Z" opacity="1" transform="matrix(1,0,0,1,0,0)" fill="#000000" class="undefined-text-0" data-fill-palette-color="primary" id="text-0"></path></svg></g></svg></g><g transform="matrix(1,0,0,1,100.925708544,98.94880907308159)"><svg viewBox="0 0 143.50565145599995 43.8116942139813" height="43.8116942139813" width="143.50565145599995"><g transform="matrix(1,0,0,1,0,0)"><svg width="143.50565145599995" viewBox="4 -29.399999618530273 96.30000305175781 29.399999618530273" height="43.8116942139813" data-palette-color="#111111"><path d="M27.2 0L4.5 0 4.5-25.4 4-29.4 27.2-29.4Q31.25-29.4 33.43-28.4 35.6-27.4 36.45-25.43 37.3-23.45 37.3-20.5L37.3-20.5 37.3-8.95Q37.3-5.95 36.48-3.98 35.65-2 33.48-1 31.3 0 27.2 0L27.2 0ZM11.1-24.6L11.1-4.8 26.8-4.8Q30.65-4.8 30.7-8.35L30.7-8.35 30.7-21.1Q30.7-22.55 29.85-23.58 29-24.6 26.8-24.6L26.8-24.6 11.1-24.6ZM59.45 0L49.4 0Q46.9 0 45.55-0.65 44.2-1.3 43.62-2.3 43.05-3.3 42.92-4.4 42.8-5.5 42.8-6.4L42.8-6.4 42.8-16Q42.8-16.75 42.92-17.82 43.05-18.9 43.62-19.95 44.2-21 45.57-21.7 46.95-22.4 49.4-22.4L49.4-22.4 60.15-22.4Q63.45-22.4 65.32-21.78 67.2-21.15 67.97-19.75 68.75-18.35 68.75-16L68.75-16 68.75-8.6 60-8.6Q55.5-8.6 52.67-8.8 49.85-9 48.9-9.05L48.9-9.05 48.9-6.3Q48.85-4.3 51.3-4.3L51.3-4.3 53.85-4.3Q56.55-4.3 59.12-4.38 61.7-4.45 63.85-4.58 66-4.7 67.3-4.8L67.3-4.8 69.3-1.55Q69.3 0 59.45 0L59.45 0ZM48.9-16.1L48.9-12.9 62.65-12.9 62.65-16.1Q62.65-17.1 62.42-17.5 62.2-17.9 61.1-18 60-18.1 57.35-18.1L57.35-18.1 51.3-18.1Q48.9-18.1 48.9-16.1L48.9-16.1ZM90.1 0L82.1 0 71.8-22.4 78.8-22.4 84.55-8.6 85.85-5 86.35-5 87.65-8.6 93.5-22.4 100.3-22.4 99.5-19.35 90.1 0Z" opacity="1" transform="matrix(1,0,0,1,0,0)" fill="#000000" class="undefined-text-1" data-fill-palette-color="secondary" id="text-1"></path></svg></g></svg></g></svg></g></svg></g><g transform="matrix(1,0,0,1,263.3294205162925,0)"><svg viewBox="0 0 151.05858047999996 151.05858047999996" height="151.05858047999996" width="151.05858047999996"><g data-palette-color="#aaaaaa"><rect width="41.28934533119999" height="151.05858047999996" fill="#000000" stroke="transparent" data-fill-palette-color="accent" x="0" fill-opacity="1"></rect><rect width="41.28934533119999" height="151.05858047999996" fill="#000000" stroke="transparent" data-fill-palette-color="accent" x="50.352860159999985" fill-opacity="0.75"></rect><rect width="41.28934533119999" height="151.05858047999996" fill="#000000" stroke="transparent" data-fill-palette-color="accent" x="100.70572031999997" fill-opacity="0.5"></rect></g></svg></g></svg></g></svg></g><g><path d="M151.089 179.299A122.216 122.216 0 1 0 151.089 67.901L155.347 67.901A117.957 117.957 0 1 1 155.347 179.299L151.089 179.299" fill="#000000" stroke="transparent" data-fill-palette-color="tertiary"></path></g></svg></g></svg><rect width="395.52" height="247.2" fill="none" stroke="none" visibility="hidden"></rect></g></svg></g></svg>